<?xml version="1.0" encoding="UTF-8"?>
<svg id="Layer_1" data-name="Layer 1" xmlns="http://www.w3.org/2000/svg" viewBox="0 0 1125 1125">
  <defs>
    <style>
      .cls-1 {
        font-family: Avenir-Medium, Avenir;
        font-weight: 500;
      }

      .cls-2 {
        fill: none;
        stroke-width: 12px;
      }

      .cls-2,
      .cls-3 {
        stroke: #39b54a;
        stroke-miterlimit: 10;
      }

      .cls-4 {
        letter-spacing: -.02em;
      }

      .cls-4,
      .cls-5,
      .cls-6 {
        font-family: Avenir-Black, Avenir;
        font-weight: 800;
      }

      .cls-5 {
        letter-spacing: 0em;
      }

      .cls-7 {
        font-size: 117px;
      }

      .cls-7,
      .cls-8,
      .cls-3 {
        fill: #39b54a;
      }

      .cls-3 {
        stroke-width: 15px;
      }
    </style>
  </defs>
  <text class="cls-7" transform="translate(206.06 822.39)">
    <tspan class="cls-6" x="0" y="0">SMA</tspan>
    <tspan class="cls-4" x="264.3" y="0">R</tspan>
    <tspan class="cls-5" x="338.01" y="0">T</tspan>
    <tspan class="cls-1" x="405.17" y="0">CHEF</tspan>
  </text>
  <g>
    <g>
      <path class="cls-8"
        d="M461.78,404.47c0-5.61-4.54-10.16-10.15-10.17h-.01c-5.61,0-10.16,4.54-10.17,10.15h0c0,26.71,29.44,63.36,32.8,67.46,3.57,4.33,9.97,4.96,14.31,1.41,4.34-3.56,4.96-9.97,1.41-14.31-10.9-13.28-28.19-39.83-28.19-54.54Zm101.22-203.86,0,0" />
      <path class="cls-8"
        d="M569.54,617.94h-127.24c-5.65,0-10.96-2.2-14.96-6.2-3.99-4-6.19-9.31-6.18-14.97l.05-39.82h148.34v-20.33h-148.31l.13-99.7c.08-3.57-1.71-6.91-4.73-8.83-.51-.32-1.04-.6-1.6-.82-33.36-14.59-54.92-47.45-54.92-83.79,0-50.45,41.04-91.49,91.49-91.49,1.97,0,4.05,.24,6.1,.4-10.28,17.87-16.26,38.53-16.26,60.59,0,5.61,4.54,10.16,10.15,10.17h.01c5.61,0,10.16-4.54,10.17-10.15h0c0-56.06,45.6-101.67,101.65-101.67,2.05,0,4.09,.07,6.11,.19v-20.36c-2.03-.1-4.06-.16-6.11-.16-37,0-70.15,16.62-92.53,42.72-6.69-1.24-13.12-2.06-19.28-2.06-61.66,0-111.82,50.16-111.82,111.82,0,42.25,23.82,80.66,61.23,99.65l-.2,153.62c0,11.09,4.3,21.51,12.13,29.35,7.84,7.85,18.26,12.17,29.34,12.17h127.24v-20.33Z" />
    </g>
    <line class="cls-3" x1="573.23" y1="191" x2="573.23" y2="638" />
    <circle class="cls-2" cx="727.36" cy="530.85" r="17.85" />
    <circle class="cls-2" cx="708.35" cy="248.16" r="17.85" />
    <circle class="cls-2" cx="767.35" cy="323.16" r="17.85" />
    <circle class="cls-2" cx="645.35" cy="419.16" r="17.85" />
    <circle class="cls-2" cx="767.35" cy="445.16" r="17.85" />
    <circle class="cls-2" cx="650.35" cy="521.16" r="17.85" />
    <circle class="cls-2" cx="675.35" cy="599.16" r="17.85" />
    <circle class="cls-2" cx="694.35" cy="469.16" r="17.85" />
    <polyline class="cls-2" points="571.78 286.56 671.75 286.56 700.53 257.78" />
    <line class="cls-2" x1="569.75" y1="324" x2="755.07" y2="324" />
    <polyline class="cls-2" points="570.71 373.38 678.96 373.38 757.92 437.34" />
    <line class="cls-2" x1="572.85" y1="418.4" x2="632.75" y2="418.4" />
    <line class="cls-2" x1="572.85" y1="469.85" x2="683.25" y2="469.85" />
    <line class="cls-2" x1="576.07" y1="521.29" x2="637.75" y2="521.29" />
    <polyline class="cls-2" points="575.75 564.5 636.75 564.5 666.75 590" />
    <circle class="cls-2" cx="745.17" cy="377.58" r="17.85" />
  </g>
</svg>